<svg xmlns="http://www.w3.org/2000/svg" viewBox="0 0 334.79 242.93"><defs><style>.cls-1{opacity:0.41;}.cls-2,.cls-3{fill:#c5d9ff;}.cls-3{opacity:0.31;}.cls-4{fill:#243762;}.cls-5{fill:#ecf1f7;}.cls-6,.cls-9{fill:#fff;}.cls-7{opacity:0.4;}.cls-10,.cls-8{fill:#af9cda;}.cls-9{opacity:0.28;}.cls-10{opacity:0.29;}.cls-11{fill:#f7a9b4;}.cls-12{fill:#f9d9eb;}.cls-13{fill:#ef92c7;opacity:0.46;}.cls-14{fill:#4c65ba;}</style></defs><title>Asset 3</title><g id="Layer_2" data-name="Layer 2"><g id="OBJECTS"><g class="cls-1"><path class="cls-2" d="M1.56,174.14C-.22,135.88,19.49,103,49.24,84.49A21.2,21.2,0,0,0,59.17,69c0-.34.08-.69.13-1,5.45-42,46.3-71.53,89.82-65.84,41.62,5.44,71.58,26.58,67.16,67.3,0,.19-.05.47-.07.82C215.44,81.3,224.5,90.63,236,90.89c2.41.06,4.85.21,7.3.45,49.65,5,85.68,47.88,80.39,95.77a85.74,85.74,0,0,1-28.88,54.94H36C16.31,224,2.72,198.84,1.56,174.14Z"/></g><circle class="cls-3" cx="31.32" cy="52.57" r="10.12"/><circle class="cls-3" cx="289.99" cy="18.12" r="16.74" transform="translate(72.12 210.36) rotate(-45)"/><path class="cls-3" d="M232.67,6.4A6.4,6.4,0,1,1,226.28,0,6.39,6.39,0,0,1,232.67,6.4Z"/><path class="cls-2" d="M25.3,184.13C23.77,151.5,40.58,123.47,66,107.68a18.13,18.13,0,0,0,8.47-13.25c0-.29.07-.59.1-.88,4.66-35.83,39.5-61,76.61-56.15,35.5,4.64,61.05,22.67,57.28,57.39,0,.17,0,.4-.06.7-.66,9.47,7.06,17.42,16.9,17.65,2.06,0,4.14.17,6.22.38,42.35,4.25,73.07,40.83,68.56,81.67a73.08,73.08,0,0,1-24.63,46.86H54.66C37.88,226.61,26.28,205.2,25.3,184.13Z"/><path class="cls-4" d="M316.73,242.93H11a.88.88,0,0,1,0-1.76H316.73a.88.88,0,0,1,0,1.76Z"/><path class="cls-5" d="M270.63,221.69h-205V95.61a8.71,8.71,0,0,1,8.71-8.72H261.92a8.71,8.71,0,0,1,8.71,8.72Z"/><path class="cls-4" d="M271.13,222.19h-206V95.61a9.23,9.23,0,0,1,9.21-9.22H261.92a9.23,9.23,0,0,1,9.21,9.22Zm-205-1h204V95.61a8.22,8.22,0,0,0-8.21-8.22H74.36a8.22,8.22,0,0,0-8.21,8.22Z"/><rect class="cls-6" x="77.86" y="99.75" width="181.21" height="121.1"/><rect class="cls-2" x="77.86" y="99.73" width="181.21" height="11.45"/><path class="cls-6" d="M86.45,107.55a2.1,2.1,0,1,1,2.1-2.1A2.1,2.1,0,0,1,86.45,107.55Zm0-3.2a1.1,1.1,0,1,0,1.1,1.1A1.1,1.1,0,0,0,86.45,104.35Z"/><path class="cls-6" d="M93.74,107.55a2.1,2.1,0,1,1,2.1-2.1A2.1,2.1,0,0,1,93.74,107.55Zm0-3.2a1.1,1.1,0,1,0,1.1,1.1A1.1,1.1,0,0,0,93.74,104.35Z"/><path class="cls-6" d="M100.43,107.55a2.1,2.1,0,1,1,2.1-2.1A2.11,2.11,0,0,1,100.43,107.55Zm0-3.2a1.1,1.1,0,1,0,1.1,1.1A1.11,1.11,0,0,0,100.43,104.35Z"/><polygon class="cls-4" points="78.36 220.85 77.36 220.85 77.36 99.25 154.73 99.25 154.73 100.25 78.36 100.25 78.36 220.85"/><g class="cls-7"><circle class="cls-8" cx="113.6" cy="134.73" r="20.14"/><rect class="cls-8" x="142.91" y="160.3" width="108.51" height="51.52" rx="2.75"/><rect class="cls-9" x="153.9" y="167.93" width="38.17" height="18.12" rx="0.64"/><rect class="cls-9" x="201.47" y="167.93" width="38.17" height="18.12" rx="0.64"/><path class="cls-6" d="M116.24,140h0a.7.7,0,0,1,.71.7v1.5a.71.71,0,0,1-.71.71h-5.36a.71.71,0,0,1-.71-.71v-1.49a.71.71,0,0,1,.71-.71h0a.7.7,0,0,0,.71-.7v-4.43a.71.71,0,0,0-.71-.71h0a.71.71,0,0,1-.71-.71V132a.7.7,0,0,1,.71-.7h3.91a.7.7,0,0,1,.71.7v7.34A.7.7,0,0,0,116.24,140Z"/><path class="cls-6" d="M113.5,126.53h0a1.52,1.52,0,0,1,1.53,1.53h0a1.53,1.53,0,0,1-1.53,1.53h0a1.54,1.54,0,0,1-1.53-1.53h0A1.53,1.53,0,0,1,113.5,126.53Z"/><rect class="cls-8" x="143.79" y="122.51" width="88.87" height="1"/><rect class="cls-8" x="143.79" y="146.19" width="88.87" height="1"/><rect class="cls-8" x="143.79" y="132.84" width="37.24" height="1"/><rect class="cls-8" x="92.27" y="192.41" width="38.92" height="1"/><rect class="cls-8" x="92.27" y="202.77" width="38.92" height="1"/><rect class="cls-8" x="189.33" y="132.84" width="38.97" height="1"/><rect class="cls-6" x="152.73" y="202.41" width="88.87" height="1"/><rect class="cls-6" x="152.73" y="194.27" width="37.24" height="1"/><rect class="cls-6" x="198.27" y="194.27" width="38.97" height="1"/></g><path class="cls-4" d="M168.63,96.81a2.54,2.54,0,1,1,2.54-2.53A2.54,2.54,0,0,1,168.63,96.81Zm0-4.07a1.54,1.54,0,1,0,1.54,1.54A1.54,1.54,0,0,0,168.63,92.74Z"/><path class="cls-4" d="M176,95.55a1.35,1.35,0,0,1,0-2.69,1.35,1.35,0,1,1,0,2.69Zm0-1.69a.35.35,0,0,0-.34.35.35.35,0,0,0,.69,0A.35.35,0,0,0,176,93.86Z"/><path class="cls-4" d="M291,241H45.28a2,2,0,0,1-2-2V227.69a6,6,0,0,1,6-6H287a6,6,0,0,1,6,6V239A2,2,0,0,1,291,241Z"/><path class="cls-10" d="M291.09,229.85H45.19a1.91,1.91,0,0,1-1.91-1.92h0A5.73,5.73,0,0,1,49,222.2H287.26a5.73,5.73,0,0,1,5.74,5.73h0A1.92,1.92,0,0,1,291.09,229.85Z"/><path class="cls-6" d="M189.11,231.83H148.67a4.49,4.49,0,0,1-4.48-4.48v-4.72a.5.5,0,0,1,.5-.5.5.5,0,0,1,.5.5v4.72a3.48,3.48,0,0,0,3.48,3.48h40.44a3.19,3.19,0,0,0,3.19-3.2v-5a.5.5,0,0,1,.5-.5.5.5,0,0,1,.5.5v5A4.2,4.2,0,0,1,189.11,231.83Z"/><path class="cls-6" d="M184.72,230H153a3.63,3.63,0,0,1-3.62-3.63v-3.7a.5.5,0,0,1,1,0v3.7A2.63,2.63,0,0,0,153,229h31.73a2.4,2.4,0,0,0,2.4-2.4v-3.93a.5.5,0,0,1,.5-.5.5.5,0,0,1,.5.5v3.93A3.4,3.4,0,0,1,184.72,230Z"/><path class="cls-6" d="M80.06,236.57a2.7,2.7,0,1,1,2.7-2.7A2.7,2.7,0,0,1,80.06,236.57Zm0-4.4a1.7,1.7,0,1,0,1.7,1.7A1.7,1.7,0,0,0,80.06,232.17Z"/><path class="cls-6" d="M90.4,235.72a2.11,2.11,0,1,1,2.11-2.11A2.11,2.11,0,0,1,90.4,235.72Zm0-3.21a1.11,1.11,0,1,0,1.11,1.1A1.1,1.1,0,0,0,90.4,232.51Z"/><path class="cls-4" d="M259.07,111.6H154.73a.5.5,0,0,1-.5-.5.5.5,0,0,1,.5-.5H259.07a.5.5,0,0,1,.5.5A.5.5,0,0,1,259.07,111.6Z"/><path class="cls-8" d="M142.15,128.79H5.82A5.83,5.83,0,0,0,0,134.61v54.08a5.83,5.83,0,0,0,5.82,5.83h98l16.87,16.86V194.52h21.43a5.83,5.83,0,0,0,5.83-5.83V134.61A5.83,5.83,0,0,0,142.15,128.79Z"/><path class="cls-5" d="M39,191.4a30.89,30.89,0,1,1,30.89-30.88A30.92,30.92,0,0,1,39,191.4Zm0-60.77a29.89,29.89,0,1,0,29.89,29.89A29.92,29.92,0,0,0,39,130.63Z"/><path class="cls-6" d="M133.1,146.07h-52a.5.5,0,0,1-.5-.5.5.5,0,0,1,.5-.5h52a.5.5,0,0,1,.5.5A.5.5,0,0,1,133.1,146.07Z"/><path class="cls-6" d="M133.1,169.25h-52a.5.5,0,0,1-.5-.5.5.5,0,0,1,.5-.5h52a.5.5,0,0,1,.5.5A.5.5,0,0,1,133.1,169.25Z"/><path class="cls-6" d="M107.1,157.87h-26a.5.5,0,0,1-.5-.5.5.5,0,0,1,.5-.5h26a.51.51,0,0,1,.5.5A.5.5,0,0,1,107.1,157.87Z"/><path class="cls-6" d="M107.1,178.63h-26a.5.5,0,0,1-.5-.5.5.5,0,0,1,.5-.5h26a.5.5,0,0,1,.5.5A.51.51,0,0,1,107.1,178.63Z"/><path class="cls-6" d="M132.44,157.87h-17.6a.5.5,0,0,1-.5-.5.5.5,0,0,1,.5-.5h17.6a.5.5,0,0,1,.5.5A.5.5,0,0,1,132.44,157.87Z"/><path class="cls-11" d="M63.88,124.22a6,6,0,0,0-1.73-3.65,14.64,14.64,0,0,1-2.45-3.31,5.7,5.7,0,0,0-.84-1.82,16.4,16.4,0,0,1-1-4.33l-.26-2.64s0-.09,0-.14l-.12-1.26a10.94,10.94,0,0,0-3.35-6.85,15.62,15.62,0,0,0-10.77-5.65h0a15.67,15.67,0,0,0-12.86,5,11,11,0,0,0-5.67,10.67l.18,1.87A5.46,5.46,0,0,0,22.91,116h0a5.49,5.49,0,0,0,.79,3.33,14.53,14.53,0,1,0,21.68,19.34,10.13,10.13,0,0,0,5.39,2.13h0a10.12,10.12,0,0,0,10.93-9.22h0a10.67,10.67,0,0,0,0-2A6,6,0,0,0,63.88,124.22Z"/><path class="cls-12" d="M68.61,124.51a9.71,9.71,0,0,1,0-4.33l1.82-3.94a1.38,1.38,0,0,1,1.65-.76h0L74.21,113c.26-.33,3.15-3.46,3.38-3.81s1.4-.81,1.58,0c.35,1.48-2.51,5.7-2.51,5.7s1.4.6,1.65,1.37.37,1,.37,1a4.61,4.61,0,0,1,1,1.94l.15.33s.33-.1.86,1.37a1.67,1.67,0,0,1-.3,1.69,2.39,2.39,0,0,1-1,.71l-.69.24.74,5-10.21-.53Z"/><path class="cls-12" d="M73.65,123.46c-.45-2.83-2.19-3.49-2.19-3.49s.39-.88.9-2.14a2.41,2.41,0,0,0,0-2,.58.58,0,0,0-.2-.21c-.27-.17-1-.42-1.66.66a14.53,14.53,0,0,0-1,2"/><path class="cls-4" d="M73.65,123.64a.17.17,0,0,1-.18-.15c-.43-2.68-2-3.32-2.07-3.35l-.18-.07.08-.17s.39-.89.89-2.14a2.25,2.25,0,0,0,0-1.88.5.5,0,0,0-.14-.15c-.26-.16-.8-.3-1.41.61a14,14,0,0,0-1,2,.18.18,0,0,1-.34-.14,14.42,14.42,0,0,1,1.07-2.05c.83-1.24,1.67-.86,1.91-.71a.73.73,0,0,1,.26.29,2.58,2.58,0,0,1,.06,2.19c-.38.94-.69,1.67-.83,2a4.61,4.61,0,0,1,2.13,3.55.18.18,0,0,1-.15.21Z"/><path class="cls-4" d="M83.28,156.7q-.51-5.17-.91-10.37c-.24-3-1.05-15.05-1.37-19.28a1.45,1.45,0,0,0-1.59-1.32l-10.51,1.1a1.66,1.66,0,0,0-1.47,1.89c1.06,6.84,1.95,24.09,1.95,24.09l-5.26-5.33c-1.33-1.35-2.58-2.78-3.85-4.19a31.93,31.93,0,0,0-8.13-6l-.35-.31,0,.14a24.5,24.5,0,0,0-2.63-1.27L31,135.78a14.53,14.53,0,0,0-2.73.28c-7.36,1.38-13.52,8.17-15.06,16.92a24.38,24.38,0,0,0-.37,4.23l-.59,6.66a26.94,26.94,0,0,0,52.54,4.7,24.39,24.39,0,0,0,7,1.74,12.73,12.73,0,0,0,6-1.48,10.2,10.2,0,0,0,4.48-3.68C83.84,162.6,83.56,159.55,83.28,156.7Z"/><path class="cls-12" d="M57.43,120.49l-1.2-11.4a10,10,0,0,0-2.56-5.7,10.2,10.2,0,0,1-10.13,9.08H34.25l1.09,10.36a8.65,8.65,0,0,0,.28,1.45l-1.76,9.5a7.94,7.94,0,1,0,15.58,3l1.09-5.58A10.31,10.31,0,0,0,57.43,120.49Z"/><path class="cls-13" d="M46.89,131.94a10.49,10.49,0,0,1-10.48-5.58l-.13.79c-.45,3,2.38,5.86,6.33,6.47h0a7.65,7.65,0,0,0,6.92-2.08,8.92,8.92,0,0,1-1.49.28Z"/><path class="cls-4" d="M53.67,115.79h0a.59.59,0,0,0,.55-.61L54.16,114a.59.59,0,0,0-.61-.55h0a.59.59,0,0,0-.55.61l.06,1.16A.59.59,0,0,0,53.67,115.79Z"/><path class="cls-4" d="M43.53,117.05h0a.58.58,0,0,0,.55-.61L44,115.29a.57.57,0,0,0-.6-.55h0a.57.57,0,0,0-.55.61l.06,1.15A.57.57,0,0,0,43.53,117.05Z"/><path class="cls-11" d="M51.69,111.29a2.13,2.13,0,0,0,.79,0c.28-.05.56-.09.8-.11l.81-.07a2.21,2.21,0,0,0,.77-.13c.2-.1.25-.34,0-.59a2.43,2.43,0,0,0-1.74-.38,2.14,2.14,0,0,0-1.54.74C51.34,111,51.47,111.24,51.69,111.29Z"/><path class="cls-11" d="M41,112.92a2,2,0,0,0,.79-.08l.8-.15.8-.11a2.18,2.18,0,0,0,.77-.18c.19-.12.22-.37-.09-.62a2.36,2.36,0,0,0-1.78-.33,2.05,2.05,0,0,0-1.49.86C40.65,112.65,40.79,112.87,41,112.92Z"/><path class="cls-4" d="M47.17,119.39a.25.25,0,0,1,0-.5l1.41-.25a.56.56,0,0,0,.43-.33.58.58,0,0,0,0-.53c-1.21-1.22-1.33-4.1-1.34-4.22a.24.24,0,0,1,.24-.26.24.24,0,0,1,.26.24s.12,2.84,1.22,3.91l0,0a1.1,1.1,0,0,1,.06,1,1.11,1.11,0,0,1-.81.63l-1.4.24Z"/><path class="cls-13" d="M46.45,126.3l-.07,0a.15.15,0,0,1-.07-.2,1.71,1.71,0,0,1,1.45-.91,1.69,1.69,0,0,1,1.51.79.16.16,0,0,1-.05.21.15.15,0,0,1-.2,0,1.41,1.41,0,0,0-1.25-.66,1.43,1.43,0,0,0-1.2.76A.15.15,0,0,1,46.45,126.3Z"/><path class="cls-6" d="M46.38,115.73a.37.37,0,0,1-.05-.74l3.05-.46a.37.37,0,0,1,.43.31.38.38,0,0,1-.32.43l-3.05.46Z"/><path class="cls-6" d="M52.7,119.06a3.57,3.57,0,0,1-3.54-3.18l-.23-2.26a1.71,1.71,0,0,1,.38-1.29,1.74,1.74,0,0,1,1.18-.64l4.61-.49A1.75,1.75,0,0,1,57,112.76l.23,2.18a3.65,3.65,0,0,1-3.24,4l-1,.1Zm2.58-7.12h-.1l-4.61.48a1,1,0,0,0-.68.37,1,1,0,0,0-.22.74l.24,2.26A2.81,2.81,0,0,0,53,118.29l.95-.1A2.9,2.9,0,0,0,56.51,115l-.23-2.17a1,1,0,0,0-.37-.67A1,1,0,0,0,55.28,111.94Z"/><path class="cls-6" d="M42.19,120.17A3.57,3.57,0,0,1,38.67,117l-.24-2.25A1.75,1.75,0,0,1,40,112.8l4.61-.49a1.77,1.77,0,0,1,1.93,1.56l.23,2.17a3.64,3.64,0,0,1-3.24,4h0l-1,.1Zm1.29-.5h0Zm1.3-6.62h-.1l-4.61.48a1,1,0,0,0-.9,1.11l.24,2.25a2.81,2.81,0,0,0,3.09,2.5l.94-.1A2.89,2.89,0,0,0,46,116.12L45.78,114A1,1,0,0,0,44.78,113.05Z"/><path class="cls-6" d="M47.81,124.19l1.28-.13c.61-.07,1.08-.46,1-.89l-.29-2.73-7,.83C43.22,125,45.26,124.46,47.81,124.19Z"/><path class="cls-4" d="M53.73,98.91H41.47a10,10,0,0,0-9.95,10v3.36h-.13A3.27,3.27,0,0,0,28.68,116l.61,3.82A3.28,3.28,0,0,0,33,122.5a3.45,3.45,0,0,0,1.27-.5l2.62,3.43a3.14,3.14,0,0,0,2.47,1.21h3.68a.37.37,0,0,0,.37-.37.38.38,0,0,0-.37-.38H39.39a2.35,2.35,0,0,1-1.87-.92l-2.65-3.46a3.24,3.24,0,0,0,.87-2.76l-.61-3.81a3.27,3.27,0,0,0-2.61-2.68v-3.4a9,9,0,0,1,8.95-9H53.73a.5.5,0,0,0,0-1Z"/><path class="cls-11" d="M44.43,127.06H43a.79.79,0,0,1-.79-.79h0a.79.79,0,0,1,.79-.79h1.47a.79.79,0,0,1,.79.79h0A.79.79,0,0,1,44.43,127.06Z"/><path class="cls-4" d="M44.43,127.44H43a1.17,1.17,0,1,1,0-2.33h1.47a1.17,1.17,0,1,1,0,2.33ZM43,125.86a.41.41,0,0,0-.42.41.42.42,0,0,0,.42.42h1.47a.42.42,0,0,0,.42-.42.41.41,0,0,0-.42-.41Z"/><path class="cls-4" d="M32.52,119.28h0a1.42,1.42,0,0,1-1.61-1.17l-.15-.92a1.42,1.42,0,0,1,1.17-1.61h0a1.42,1.42,0,0,1,1.61,1.17l.15.92A1.42,1.42,0,0,1,32.52,119.28Z"/><path class="cls-5" d="M32.3,119.54a1.66,1.66,0,0,1-1.64-1.39l-.14-.92a1.65,1.65,0,0,1,2.6-1.6,1.67,1.67,0,0,1,.67,1.08l.14.92a1.64,1.64,0,0,1-1.37,1.89h0A1.18,1.18,0,0,1,32.3,119.54Zm-.15-3.72H32a1.17,1.17,0,0,0-1,1.32l.15.92a1.15,1.15,0,0,0,1.32,1h0a1.16,1.16,0,0,0,1-1.32l-.15-.92a1.15,1.15,0,0,0-.46-.75A1.13,1.13,0,0,0,32.15,115.82Z"/><path class="cls-11" d="M329,75.86H182.63a5.83,5.83,0,0,0-5.83,5.82v58.53a5.83,5.83,0,0,0,5.83,5.83h15l2,16.49L216.14,146H329a5.83,5.83,0,0,0,5.82-5.83V81.68A5.83,5.83,0,0,0,329,75.86Z"/><path class="cls-5" d="M287.56,142a30.69,30.69,0,1,1,30.69-30.69A30.72,30.72,0,0,1,287.56,142Zm0-60.37a29.69,29.69,0,1,0,29.69,29.68A29.71,29.71,0,0,0,287.56,81.64Z"/><path class="cls-6" d="M245.72,97H194a.51.51,0,0,1-.5-.5.5.5,0,0,1,.5-.5h51.68a.5.5,0,0,1,.5.5A.5.5,0,0,1,245.72,97Z"/><path class="cls-6" d="M245.72,120H194a.5.5,0,1,1,0-1h51.68a.5.5,0,1,1,0,1Z"/><path class="cls-6" d="M245.72,108.7H219.88a.51.51,0,0,1-.5-.5.5.5,0,0,1,.5-.5h25.84a.5.5,0,0,1,.5.5A.5.5,0,0,1,245.72,108.7Z"/><path class="cls-6" d="M245.72,129.32H219.88a.51.51,0,0,1-.5-.5.5.5,0,0,1,.5-.5h25.84a.5.5,0,0,1,.5.5A.5.5,0,0,1,245.72,129.32Z"/><path class="cls-6" d="M212.19,108.7H194.7a.51.51,0,0,1-.5-.5.5.5,0,0,1,.5-.5h17.49a.5.5,0,0,1,.5.5A.5.5,0,0,1,212.19,108.7Z"/><path class="cls-4" d="M314.87,105.93h0l-7.21-29-1.94.66-7.78,2.65-1.44.49L299,92.17c-.53,0-1.06-.07-1.59-.07l-22.67.06c-7.37,0-13.56,5.87-14.43,13.62l-.27,2.42c-1.38,12.23,5.44,24.17,17,28.5q.72.27,1.47.51a28.56,28.56,0,0,0,36.83-23.54A20.28,20.28,0,0,0,314.87,105.93Z"/><path class="cls-4" d="M293.88,68.66l-.8-11.11a6.94,6.94,0,0,0-.13-.93,7.42,7.42,0,0,0,.13-1.34,7,7,0,0,0-11.84-5.17,7.42,7.42,0,0,0-12.89,3.79,5.19,5.19,0,0,0-1.05,9.85l.49,6.79C268.11,75,272.25,78.3,277,78l8.79-.63C290.59,77,294.2,73.1,293.88,68.66Z"/><path class="cls-12" d="M292.44,72.24a3.71,3.71,0,0,0-.62-7.4l-.41,0-.31-3.58a4.81,4.81,0,0,0-.12-.76,5.16,5.16,0,0,1-4,2.62,5.21,5.21,0,0,1-5.48-3.54,7.67,7.67,0,0,1-11.35.73,5.56,5.56,0,0,0-.49,2.76l.42,4.95a8.89,8.89,0,0,0,0,1.37l.61,9.92a8.65,8.65,0,0,0,5.46,7.53l1,5.55c1,5.3,5.6,8.89,10.31,8s7.74-5.88,6.76-11.18l-2-13-.25-4Z"/><path class="cls-13" d="M284.18,87.21l-4.34.27a9,9,0,0,1-2.39-.19c1.52,1.89,4.95,2.7,8.55,1.8h0c4.4-1.1,7.38-4.32,6.67-7.18l-.46-2A8.67,8.67,0,0,1,284.18,87.21Z"/><path class="cls-13" d="M293.85,68.52a2.63,2.63,0,0,0-2.32-2.16l.07.79c0,.31.09.63.11.95l.18,2.94A2.65,2.65,0,0,0,293.85,68.52Z"/><path class="cls-4" d="M274.07,70.35h0a.53.53,0,0,1-.57-.48l-.09-1.05a.53.53,0,0,1,.48-.57h0a.53.53,0,0,1,.57.48l.09,1A.53.53,0,0,1,274.07,70.35Z"/><path class="cls-4" d="M283.33,69.79h0a.53.53,0,0,1-.57-.48l-.08-1a.52.52,0,0,1,.48-.57h0a.52.52,0,0,1,.56.48l.09,1A.53.53,0,0,1,283.33,69.79Z"/><path class="cls-4" d="M271.43,66.43c.08-.27.35-.46.59-.67s.5-.41.7-.6a8.09,8.09,0,0,0,.64-.66,1.72,1.72,0,0,1,.72-.55c.27-.07.62.12.75.63a2.08,2.08,0,0,1-.69,1.93,2.33,2.33,0,0,1-2.05.63C271.55,67,271.35,66.68,271.43,66.43Z"/><path class="cls-4" d="M285.79,66.28a1.73,1.73,0,0,1-1,0c-.35-.06-.7-.12-1-.15a10,10,0,0,0-1-.07,1.77,1.77,0,0,1-1-.21c-.26-.18-.37-.63-.05-1.13a2.16,2.16,0,0,1,2.08-.86,2.71,2.71,0,0,1,2,1.32C286.18,65.73,286.06,66.15,285.79,66.28Z"/><path class="cls-4" d="M278.19,75a1.86,1.86,0,0,1-1.79-2.38l1.46-5a.29.29,0,0,1,.36-.19.29.29,0,0,1,.2.36l-1.46,5A1.27,1.27,0,0,0,277.2,74a1.28,1.28,0,0,0,1.1.47l2.66-.23a.29.29,0,0,1,.31.27.28.28,0,0,1-.26.31l-2.66.22Z"/><path class="cls-6" d="M283.93,79.94l-1.27.59a1.1,1.1,0,0,1-1.48-.25l-1.26-2.73L287,74.39C288.68,78.07,286.48,78.76,283.93,79.94Z"/><polygon class="cls-6" points="276.48 91.83 271.91 98.69 282.01 107.07 285.82 99.45 276.48 91.83"/><polygon class="cls-6" points="294.78 91.83 299.35 98.69 289.25 107.07 285.44 99.45 294.78 91.83"/><rect class="cls-14" x="292.06" y="62.4" width="2.87" height="17.64" rx="0.82" transform="translate(5.93 -21.06) rotate(4.15)"/><path class="cls-12" d="M297.12,65.93s-3.49-1.36-3.85,1.7c-.22,1.93.13,2.22.42,2.17-.35.27-.84,1-.49,2.75.4,2,.9,2,1.12,1.85A2.32,2.32,0,0,0,294,78a15.34,15.34,0,0,0,3.93,2.18l7.78-2.65C305.16,72.6,303.25,66.1,297.12,65.93Z"/><path class="cls-4" d="M294.56,70.14a4.86,4.86,0,0,1-1.07-.11.24.24,0,0,1-.19-.29.25.25,0,0,1,.29-.2,7,7,0,0,0,2.84-.15.24.24,0,0,1,.31.17.25.25,0,0,1-.17.31A8.34,8.34,0,0,1,294.56,70.14Z"/><path class="cls-4" d="M294.56,74.77a5.54,5.54,0,0,1-1.07-.1.25.25,0,0,1-.19-.3.24.24,0,0,1,.29-.19,6.9,6.9,0,0,0,2.84-.16.25.25,0,0,1,.31.17.25.25,0,0,1-.17.31A7.8,7.8,0,0,1,294.56,74.77Z"/><path class="cls-2" d="M258.39,33.26H229.23a1,1,0,0,0-.93,1.05V58.5A1.77,1.77,0,0,0,230,60.36h11.24a.48.48,0,0,1,.35.16l9.35,11.2c.3.36.81.1.81-.41V60.93a.53.53,0,0,1,.48-.57h6.21a1.7,1.7,0,0,0,1.52-1.83V35.08A1.69,1.69,0,0,0,258.39,33.26Z"/><path class="cls-6" d="M240.41,42a1.23,1.23,0,0,1-1.17-1.6,5.19,5.19,0,0,1,6.21-3.31,5.08,5.08,0,0,1,2.94,2.07,5.16,5.16,0,0,1-.87,6.82l-2.24,2,0,.8A1.22,1.22,0,0,1,244,49.91h-.52a.85.85,0,0,1-.83-.87l0-1.3a2.32,2.32,0,0,1,.78-1.67l2.34-2a2.59,2.59,0,0,0,.84-2.49,2.54,2.54,0,0,0-1.72-1.92,2.59,2.59,0,0,0-3.21,1.5,1.38,1.38,0,0,1-1.32.87Z"/><path class="cls-6" d="M243.88,52.49h0a1.3,1.3,0,0,1,1.27,1.32h0a1.29,1.29,0,0,1-1.33,1.26h0a1.29,1.29,0,0,1-1.26-1.32h0A1.29,1.29,0,0,1,243.88,52.49Z"/><path class="cls-11" d="M49.63,53.67H78.78a1,1,0,0,1,.93,1V78.91a1.76,1.76,0,0,1-1.64,1.86H66.82a.44.44,0,0,0-.34.17L57.13,92.13c-.3.36-.82.11-.82-.4V81.34a.53.53,0,0,0-.47-.57H49.63a1.7,1.7,0,0,1-1.53-1.83V55.5A1.7,1.7,0,0,1,49.63,53.67Z"/><path class="cls-6" d="M66.44,71.26h0a.69.69,0,0,1,.68.68v1.43a.68.68,0,0,1-.68.68H61.35a.67.67,0,0,1-.68-.68V72a.67.67,0,0,1,.68-.68h0a.68.68,0,0,0,.68-.68V66.37a.68.68,0,0,0-.68-.68h0a.68.68,0,0,1-.68-.68V63.58a.68.68,0,0,1,.68-.68h3.73a.67.67,0,0,1,.68.68v7A.67.67,0,0,0,66.44,71.26Z"/><path class="cls-6" d="M63.82,58.37h0a1.46,1.46,0,0,1,1.46,1.47h0a1.46,1.46,0,0,1-1.46,1.46h0a1.46,1.46,0,0,1-1.47-1.46h0A1.47,1.47,0,0,1,63.82,58.37Z"/><path class="cls-6" d="M238.28,169.1v-4.37c0-1.27,1.35-2.31,3-2.31h65c1.66,0,3,1,3,2.31v43.18c0,1.27-1.34,2.3-3,2.3h-65c-1.66,0-3-1-3-2.3V201"/><path class="cls-2" d="M238.28,171.52v-6.79c0-1.27,1.35-2.31,3-2.31h65c1.66,0,3,1,3,2.31v6.49"/><path class="cls-4" d="M238.78,171.52h-1v-6.79c0-1.55,1.57-2.81,3.51-2.81h65c1.93,0,3.5,1.26,3.5,2.81v6.49h-1v-6.49c0-1-1.12-1.81-2.5-1.81h-65c-1.39,0-2.51.81-2.51,1.81Z"/><path class="cls-11" d="M308.88,171.22h0Z"/><rect class="cls-4" x="238.28" y="170.85" width="70.6" height="0.75"/><path class="cls-6" d="M243.41,168.83a1.62,1.62,0,1,1,1.61-1.62A1.62,1.62,0,0,1,243.41,168.83Zm0-2.23a.61.61,0,0,0-.62.61.62.62,0,0,0,.62.62.61.61,0,0,0,.61-.62A.61.61,0,0,0,243.41,166.6Z"/><path class="cls-6" d="M247.6,168.83a1.62,1.62,0,1,1,1.61-1.62A1.62,1.62,0,0,1,247.6,168.83Zm0-2.23a.61.61,0,0,0-.62.61.62.62,0,0,0,.62.62.61.61,0,0,0,.61-.62A.61.61,0,0,0,247.6,166.6Z"/><path class="cls-6" d="M251.71,168.83a1.62,1.62,0,1,1,1.61-1.62A1.62,1.62,0,0,1,251.71,168.83Zm0-2.23a.61.61,0,0,0-.62.61.62.62,0,0,0,.62.62.61.61,0,0,0,.61-.62A.61.61,0,0,0,251.71,166.6Z"/><line class="cls-11" x1="252.82" y1="183.23" x2="298.51" y2="183.23"/><path class="cls-4" d="M298.51,183.61H252.82a.38.38,0,0,1,0-.75h45.69a.38.38,0,1,1,0,.75Z"/><line class="cls-11" x1="252.82" y1="194.37" x2="275.67" y2="194.37"/><path class="cls-4" d="M275.67,194.74H252.82a.38.38,0,0,1,0-.75h22.85a.38.38,0,0,1,0,.75Z"/><line class="cls-11" x1="252.82" y1="188.89" x2="269.88" y2="188.89"/><path class="cls-4" d="M269.88,189.26H252.82a.38.38,0,0,1,0-.75h17.06a.38.38,0,1,1,0,.75Z"/><line class="cls-11" x1="281.46" y1="188.89" x2="298.51" y2="188.89"/><path class="cls-4" d="M298.51,189.26H281.46a.38.38,0,1,1,0-.75h17.05a.38.38,0,1,1,0,.75Z"/><path class="cls-6" d="M110.09,32.76V29c0-1.1,1.17-2,2.61-2h56.46a2.36,2.36,0,0,1,2.6,2V66.45a2.36,2.36,0,0,1-2.6,2H112.7a2.37,2.37,0,0,1-2.61-2v-6"/><path class="cls-8" d="M110.09,34.86V29c0-1.1,1.17-2,2.61-2h56.46a2.36,2.36,0,0,1,2.6,2V34.6"/><path class="cls-4" d="M110.59,34.86h-1V29c0-1.38,1.39-2.5,3.11-2.5h56.46a2.85,2.85,0,0,1,3.1,2.5V34.6h-1V29c0-.81-1-1.5-2.1-1.5H112.7c-1.14,0-2.11.69-2.11,1.5Z"/><path class="cls-11" d="M171.39,34.6h0Z"/><rect class="cls-4" x="110.09" y="34.23" width="61.3" height="0.75"/><path class="cls-6" d="M114.54,32.59A1.47,1.47,0,1,1,116,31.12,1.47,1.47,0,0,1,114.54,32.59Zm0-1.94a.47.47,0,1,0,.47.47A.47.47,0,0,0,114.54,30.65Z"/><path class="cls-6" d="M118.18,32.59a1.47,1.47,0,1,1,1.47-1.47A1.47,1.47,0,0,1,118.18,32.59Zm0-1.94a.47.47,0,1,0,.47.47A.47.47,0,0,0,118.18,30.65Z"/><path class="cls-6" d="M121.75,32.59a1.47,1.47,0,1,1,1.47-1.47A1.47,1.47,0,0,1,121.75,32.59Zm0-1.94a.47.47,0,1,0,.47.47A.47.47,0,0,0,121.75,30.65Z"/><line class="cls-11" x1="121.72" y1="45.03" x2="161.39" y2="45.03"/><path class="cls-4" d="M161.39,45.41H121.72a.38.38,0,0,1-.38-.38.37.37,0,0,1,.38-.37h39.67a.36.36,0,0,1,.37.37A.37.37,0,0,1,161.39,45.41Z"/><line class="cls-11" x1="121.72" y1="54.7" x2="141.55" y2="54.7"/><path class="cls-4" d="M141.55,55.07H121.72a.38.38,0,1,1,0-.75h19.83a.38.38,0,1,1,0,.75Z"/><line class="cls-11" x1="121.72" y1="49.94" x2="136.53" y2="49.94"/><path class="cls-4" d="M136.53,50.31H121.72a.37.37,0,0,1-.38-.37.38.38,0,0,1,.38-.38h14.81a.38.38,0,0,1,.37.38A.37.37,0,0,1,136.53,50.31Z"/><line class="cls-11" x1="146.58" y1="49.94" x2="161.39" y2="49.94"/><path class="cls-4" d="M161.39,50.31H146.58a.37.37,0,0,1-.38-.37.38.38,0,0,1,.38-.38h14.81a.37.37,0,0,1,.37.38A.36.36,0,0,1,161.39,50.31Z"/></g></g></svg>