<svg xmlns="http://www.w3.org/2000/svg" xmlns:xlink="http://www.w3.org/1999/xlink" width="500" zoomAndPan="magnify" viewBox="0 0 375 374.999991" height="500" preserveAspectRatio="xMidYMid meet" version="1.0"><defs><clipPath id="id1"><path d="M 113.097656 13.964844 L 261.597656 13.964844 L 261.597656 213 L 113.097656 213 Z M 113.097656 13.964844 " clip-rule="nonzero"/></clipPath><clipPath id="id2"><path d="M 113.097656 162 L 261.597656 162 L 261.597656 361.214844 L 113.097656 361.214844 Z M 113.097656 162 " clip-rule="nonzero"/></clipPath><clipPath id="id3"><path d="M 113.097656 113 L 261.597656 113 L 261.597656 262 L 113.097656 262 Z M 113.097656 113 " clip-rule="nonzero"/></clipPath></defs><g clip-path="url(#id1)"><path fill="#12229d" d="M 261.566406 13.96875 L 261.566406 113.179688 L 113.125 212.394531 L 113.125 113.179688 L 261.566406 13.96875 " fill-opacity="1" fill-rule="nonzero"/></g><g clip-path="url(#id2)"><path fill="#3a9bdc" d="M 261.566406 162.789062 L 261.566406 262 L 113.125 361.210938 L 113.125 262 L 261.566406 162.789062 " fill-opacity="1" fill-rule="nonzero"/></g><g clip-path="url(#id3)"><path fill="#233dff" d="M 113.125 212.394531 L 261.566406 262 L 261.566406 162.789062 L 113.125 113.179688 " fill-opacity="1" fill-rule="nonzero"/></g></svg>